<?xml version="1.0" encoding="UTF-8"?>
<svg version="1.1" xmlns="http://www.w3.org/2000/svg" width="512" height="512">
<path d="M0 0 C2.32029742 -0.00323345 4.64059467 -0.00659885 6.96089172 -0.01008606 C11.7970934 -0.01601684 16.63327738 -0.01793262 21.46948242 -0.01733398 C26.31945577 -0.01725335 31.1693334 -0.02410675 36.01928711 -0.0378418 C76.2660768 -0.14989633 116.43572184 0.54337619 156.55078125 4.04296875 C157.5537323 4.12789581 158.55668335 4.21282288 159.59002686 4.30032349 C249.12321905 11.9001789 249.12321905 11.9001789 270.77636719 37.4375 C279.36723426 48.55730749 282.90019951 62.7445376 286.11328125 76.16796875 C286.30374023 76.96170898 286.49419922 77.75544922 286.69042969 78.57324219 C292.94721346 105.64825768 294.60942974 134.2314899 296.00024605 161.92179871 C296.07763625 163.45965187 296.15631621 164.99744053 296.23609734 166.53517151 C297.02813663 182.02563208 297.27629198 197.4792802 297.28125 212.98828125 C297.28448093 215.42593402 297.2878462 217.86358661 297.29133606 220.30123901 C297.29727671 225.38898159 297.29918159 230.47670733 297.29858398 235.56445312 C297.29850333 240.67744532 297.30535631 245.79034675 297.3190918 250.90332031 C297.42649641 291.5566526 296.75003867 332.08339962 293.23828125 372.60546875 C293.15335419 373.61286102 293.06842712 374.6202533 292.98092651 375.65817261 C287.37023196 441.97421181 287.37023196 441.97421181 277.11328125 463.16796875 C276.63503906 464.16441406 276.15679687 465.16085937 275.6640625 466.1875 C266.95150256 482.6211179 253.54808492 491.56484659 236.20825195 497.23876953 C232.54178522 498.35126142 228.83996857 499.28083974 225.11328125 500.16796875 C224.24719238 500.37518555 223.38110352 500.58240234 222.48876953 500.79589844 C169.8163068 513.03583441 113.99899038 512.70213856 60.25244141 512.55908203 C53.80038362 512.54204636 47.34869904 512.55214506 40.89665413 512.56941032 C-105.80675651 512.90082764 -105.80675651 512.90082764 -158.88671875 495.16796875 C-160.29244141 494.72904297 -160.29244141 494.72904297 -161.7265625 494.28125 C-175.37612785 489.51576194 -187.40425338 479.19545398 -194.13671875 466.48046875 C-216.63306431 417.52147979 -215.03878271 353.9508591 -215.0546875 301.0625 C-215.05791634 298.48410526 -215.0612815 295.90571068 -215.06477356 293.32731628 C-215.07072005 287.94273375 -215.07266214 282.55816913 -215.07202148 277.17358398 C-215.07149234 271.74907441 -215.07847468 266.32463756 -215.0925293 260.90014648 C-215.17424973 228.599473 -214.91361224 196.41165797 -212.88671875 164.16796875 C-212.76963058 162.27118881 -212.76963058 162.27118881 -212.650177 160.33609009 C-212.20238478 153.2729534 -211.67228196 146.21986621 -211.07421875 139.16796875 C-210.99090302 138.16463501 -210.90758728 137.16130127 -210.82174683 136.12756348 C-203.45520934 48.25191681 -203.45520934 48.25191681 -178.7109375 27.328125 C-166.61195114 18.27863765 -152.37251083 14.4794151 -137.88671875 11.16796875 C-137.12133789 10.99023926 -136.35595703 10.81250977 -135.56738281 10.62939453 C-91.72715945 0.70805202 -44.72352845 0.01511974 0 0 Z " fill="#00897A" transform="translate(214.88671875,-0.16796875)"/>
<path d="M0 0 C2.99628539 2.99628539 2.7249286 6.58493471 3.125 10.625 C3.21136719 11.42679688 3.29773438 12.22859375 3.38671875 13.0546875 C3.59896327 15.03563635 3.80049931 17.01772718 4 19 C7.65890622 19.44109344 10.56764788 19.41993138 14 18 C16.74773272 13.93206757 18.41575714 9.63036837 20 5 C20.33 5 20.66 5 21 5 C21.10477512 10.78591511 20.99250545 16.29309366 20 22 C23.3 22.99 26.6 23.98 30 25 C30.66 23.68 31.32 22.36 32 21 C33.3404996 19.22343426 34.71816295 17.47450993 36.125 15.75 C36.84945312 14.85796875 37.57390625 13.9659375 38.3203125 13.046875 C39.15175781 12.03367188 39.15175781 12.03367188 40 11 C40.33 11.66 40.66 12.32 41 13 C39.92664301 15.76674582 38.79739939 18.43194258 37.5625 21.125 C37.22412109 21.87910156 36.88574219 22.63320312 36.53710938 23.41015625 C35.69839399 25.27659331 34.85008607 27.1387143 34 29 C34.7425 29.28875 35.485 29.5775 36.25 29.875 C38.5448282 30.81379336 40.78233105 31.89116553 43 33 C48.94 28.545 48.94 28.545 55 24 C55.66 24.33 56.32 24.66 57 25 C56.33871094 25.81984375 55.67742187 26.6396875 54.99609375 27.484375 C54.14256194 28.57239357 53.28973371 29.66096435 52.4375 30.75 C51.99986328 31.28882813 51.56222656 31.82765625 51.11132812 32.3828125 C48.62908546 35.46617799 48.62908546 35.46617799 48.125 39.25 C49.19010344 41.38020687 50.49041718 43.162247 52 45 C57.05456522 44.4679405 61.22124125 42.7664243 65.828125 40.7421875 C66.54484375 40.49726563 67.2615625 40.25234375 68 40 C68.66 40.33 69.32 40.66 70 41 C65.71 44.3 61.42 47.6 57 51 C57.33 52.65 57.66 54.3 58 56 C58.33333333 57.66666667 58.66666667 59.33333333 59 61 C59.78375 60.835 60.5675 60.67 61.375 60.5 C65.93966142 59.87039153 70.40072601 59.91819473 75 60 C72.21325634 62.23067325 69.53022699 63.78857967 66.25 65.1875 C64.8475 65.785625 63.445 66.38375 62 67 C62 70.3 62 73.6 62 77 C68.27 77.66 74.54 78.32 81 79 C80.67 79.66 80.34 80.32 80 81 C78.23413086 81.41064453 78.23413086 81.41064453 75.96484375 81.6328125 C75.15595703 81.71660156 74.34707031 81.80039063 73.51367188 81.88671875 C72.66353516 81.96535156 71.81339844 82.04398437 70.9375 82.125 C70.08349609 82.21136719 69.22949219 82.29773438 68.34960938 82.38671875 C66.23389367 82.59947228 64.11703476 82.80079953 62 83 C62 86.3 62 89.6 62 93 C67.28 95.31 72.56 97.62 78 100 C74.17189179 101.27603607 70.76524893 100.86283987 66.8125 100.5625 C66.06291016 100.51029297 65.31332031 100.45808594 64.54101562 100.40429688 C62.69362918 100.27486216 60.84675629 100.13813482 59 100 C58.34 102.97 57.68 105.94 57 109 C61.29 112.3 65.58 115.6 70 119 C69.34 119.33 68.68 119.66 68 120 C64.65893555 118.81126548 61.42810774 117.41644301 58.1640625 116.03125 C55.07919497 115.0258117 53.89588014 114.67216556 51 116 C48.5603398 118.61727174 48.5603398 118.61727174 48 122 C49.59036585 123.53017361 49.59036585 123.53017361 51.625 125.125 C56.63687651 129.39931312 61.18916151 133.87248013 62.875 140.375 C63.24625 141.24125 63.6175 142.1075 64 143 C67.35717912 144.05127342 67.35717912 144.05127342 69.78515625 144.4609375 C76.61428135 146.1230526 82.7904321 151.54133134 87 157 C93.16651635 167.7080723 96.06386449 177.08007837 93.19921875 189.4609375 C89.42705077 200.37559536 82.38745482 208.85782735 72 214 C64.42046533 217.43078672 57.06875529 217.43836519 48.8581543 217.41992188 C47.44773695 217.42727434 46.0373256 217.43586398 44.62692261 217.44558716 C40.81886613 217.46768971 37.01102676 217.47073949 33.20291495 217.46883965 C30.01241374 217.46871941 26.82195763 217.47730538 23.63146907 217.48561716 C16.09746204 217.50481125 8.56356579 217.50774989 1.02954102 217.50097656 C-6.71578682 217.49434077 -14.46063784 217.51719045 -22.20586902 217.55429029 C-28.87967123 217.58508574 -35.55332083 217.59633665 -42.22719258 217.59245348 C-46.20258071 217.59039587 -50.17759769 217.59571056 -54.15291786 217.62034607 C-57.89524644 217.64277418 -61.63680537 217.64060429 -65.37913895 217.62041855 C-67.38780187 217.61543811 -69.39648022 217.63491116 -71.40504456 217.65542603 C-83.0408872 217.5488307 -93.43988458 214.11867449 -102 206 C-107.90209963 199.64494854 -112.1258861 192.12103389 -112.04150391 183.32592773 C-112.03251572 182.11065651 -112.03251572 182.11065651 -112.02334595 180.87083435 C-112.01564178 180.25345901 -112.00793762 179.63608368 -112 179 C-112.80464691 179.00666183 -113.60929382 179.01332367 -114.43832397 179.02018738 C-122.05815351 179.08054599 -129.67786549 179.1260993 -137.29787254 179.15543652 C-141.21447405 179.17102661 -145.13087637 179.19214147 -149.04736328 179.22631836 C-152.8340002 179.25915161 -156.62044672 179.27690294 -160.40721512 179.28463173 C-161.84476336 179.2901326 -163.28230236 179.30087329 -164.71976852 179.31719017 C-177.24208655 179.45355166 -186.87940308 178.25223144 -196.5625 169.75 C-203.68718144 161.71189786 -206.50011409 154.01918585 -206.31640625 143.25390625 C-205.85808655 138.54056904 -204.40904746 135.0335696 -202 131 C-201.649375 130.37480469 -201.29875 129.74960937 -200.9375 129.10546875 C-196.73505208 122.40781738 -189.58340863 117.96994212 -182.171875 115.46484375 C-175.69362289 114.07831137 -169.10465418 114.36014954 -163 117 C-163.48597656 116.00484375 -163.97195312 115.0096875 -164.47265625 113.984375 C-167.80093146 106.17852035 -167.05769382 96.02078418 -164.375 88.0625 C-158.95812674 75.42944243 -150.6589541 67.29771277 -138 62 C-128.72019079 58.36487474 -118.28975931 58.7538038 -109 62.125 C-97.58656956 67.1632344 -88.43775222 75.404027 -83.59375 87.0546875 C-83 89 -83 89 -83 92 C-82.46890625 91.65066406 -81.9378125 91.30132812 -81.390625 90.94140625 C-80.68421875 90.48636719 -79.9778125 90.03132813 -79.25 89.5625 C-78.55390625 89.11003906 -77.8578125 88.65757812 -77.140625 88.19140625 C-72.50885746 85.61350643 -68.1842084 85.83276747 -63 86 C-62.34 86.33 -61.68 86.66 -61 87 C-61 85.68 -61 84.36 -61 83 C-62.82337891 82.81824219 -62.82337891 82.81824219 -64.68359375 82.6328125 C-66.26828117 82.46402922 -67.8529139 82.29473184 -69.4375 82.125 C-70.23994141 82.04636719 -71.04238281 81.96773438 -71.86914062 81.88671875 C-73.92170994 81.66154237 -75.96293009 81.33777413 -78 81 C-78.33 80.34 -78.66 79.68 -79 79 C-70.09 78.01 -70.09 78.01 -61 77 C-60.67 73.37 -60.34 69.74 -60 66 C-61.65 65.67 -63.3 65.34 -65 65 C-66.95804995 64.19405501 -68.8960874 63.33798303 -70.8125 62.4375 C-71.78832031 61.98246094 -72.76414063 61.52742188 -73.76953125 61.05859375 C-74.87361328 60.53458984 -74.87361328 60.53458984 -76 60 C-76 59.67 -76 59.34 -76 59 C-70.06 59.33 -64.12 59.66 -58 60 C-56.68 57.03 -55.36 54.06 -54 51 C-55.32 50.34 -56.64 49.68 -58 49 C-59.77656574 47.6595004 -61.52549007 46.28183705 -63.25 44.875 C-64.14203125 44.15054688 -65.0340625 43.42609375 -65.953125 42.6796875 C-66.96632812 41.84824219 -66.96632812 41.84824219 -68 41 C-67.34 40.67 -66.68 40.34 -66 40 C-64.01167955 40.71301287 -62.05660372 41.5201827 -60.125 42.375 C-55.1831927 44.55184528 -55.1831927 44.55184528 -50 46 C-49.71125 45.4225 -49.4225 44.845 -49.125 44.25 C-48.08333333 42.16666667 -47.04166667 40.08333333 -46 38 C-46.97453125 36.75283203 -46.97453125 36.75283203 -47.96875 35.48046875 C-48.81287761 34.38310286 -49.65660698 33.28543056 -50.5 32.1875 C-51.14388672 31.36668945 -51.14388672 31.36668945 -51.80078125 30.52929688 C-55 26.33984375 -55 26.33984375 -55 23 C-53.67935547 24.11761719 -53.67935547 24.11761719 -52.33203125 25.2578125 C-51.15962936 26.21449244 -49.98640902 27.17017001 -48.8125 28.125 C-48.23435547 28.61871094 -47.65621094 29.11242187 -47.06054688 29.62109375 C-45.14434251 31.22317269 -45.14434251 31.22317269 -42 33 C-38.65929089 32.3042175 -36.85166885 30.90111257 -34 29 C-34.83437909 24.58269895 -35.66459987 20.67080027 -37.6875 16.625 C-38.120625 15.75875 -38.55375 14.8925 -39 14 C-38.67 13.01 -38.34 12.02 -38 11 C-36.70681744 12.6029449 -35.41550844 14.20740142 -34.125 15.8125 C-33.04605469 17.15248047 -33.04605469 17.15248047 -31.9453125 18.51953125 C-30 21 -30 21 -28 24 C-27.0925 23.67 -26.185 23.34 -25.25 23 C-22 22 -22 22 -18 22 C-18.2165625 20.57107422 -18.2165625 20.57107422 -18.4375 19.11328125 C-18.623125 17.85902344 -18.80875 16.60476562 -19 15.3125 C-19.185625 14.07113281 -19.37125 12.82976562 -19.5625 11.55078125 C-19.92100411 8.64113629 -20.08942256 5.92299978 -20 3 C-17.53859635 5.46140365 -16.69673014 7.78456293 -15.375 11 C-14.92898438 12.0725 -14.48296875 13.145 -14.0234375 14.25 C-13 17 -13 17 -13 19 C-9.7 18.67 -6.4 18.34 -3 18 C-2.01 12.06 -1.02 6.12 0 0 Z " fill="#D1D2D1" transform="translate(312,148)"/>
<path d="M0 0 C0.79921875 0.32871094 1.5984375 0.65742188 2.421875 0.99609375 C10.22189664 4.49641402 17.22815157 9.84222736 22 17 C23.19625 16.835 24.3925 16.67 25.625 16.5 C42.14256965 14.76539629 55.52533337 16.79126381 69 27 C74.73047037 31.68154034 78.70134603 37.39060908 82 44 C82 44.66 82 45.32 82 46 C83.7325 46.3403125 83.7325 46.3403125 85.5 46.6875 C93.35216229 48.68169995 100.07315651 53.6112193 105 60 C111.16651635 70.7080723 114.06386449 80.08007837 111.19921875 92.4609375 C107.42705077 103.37559536 100.38745482 111.85782735 90 117 C82.42046533 120.43078672 75.06875529 120.43836519 66.8581543 120.41992188 C65.44773695 120.42727434 64.0373256 120.43586398 62.62692261 120.44558716 C58.81886613 120.46768971 55.01102676 120.47073949 51.20291495 120.46883965 C48.01241374 120.46871941 44.82195763 120.47730538 41.63146907 120.48561716 C34.09746204 120.50481125 26.56356579 120.50774989 19.02954102 120.50097656 C11.28421318 120.49434077 3.53936216 120.51719045 -4.20586902 120.55429029 C-10.87967123 120.58508574 -17.55332083 120.59633665 -24.22719258 120.59245348 C-28.20258071 120.59039587 -32.17759769 120.59571056 -36.15291786 120.62034607 C-39.89524644 120.64277418 -43.63680537 120.64060429 -47.37913895 120.62041855 C-49.38780187 120.61543811 -51.39648022 120.63491116 -53.40504456 120.65542603 C-65.0408872 120.5488307 -75.43988458 117.11867449 -84 109 C-91.6726257 100.73854489 -94.58892628 92.01571599 -94.40234375 80.82983398 C-93.93413102 69.62598212 -89.37513601 60.83690496 -81.1875 53.1875 C-76.54601693 49.34935054 -71.14537987 46 -65 46 C-65.05220703 45.09121094 -65.05220703 45.09121094 -65.10546875 44.1640625 C-65.51270162 31.55923553 -60.99394732 22.07263542 -52.89453125 12.515625 C-39.51680963 -1.59609551 -18.44909018 -8.19590877 0 0 Z " fill="#FEFEFD" transform="translate(294,245)"/>
<path d="M0 0 C2.99628539 2.99628539 2.7249286 6.58493471 3.125 10.625 C3.21136719 11.42679688 3.29773438 12.22859375 3.38671875 13.0546875 C3.59896327 15.03563635 3.80049931 17.01772718 4 19 C7.65890622 19.44109344 10.56764788 19.41993138 14 18 C16.74773272 13.93206757 18.41575714 9.63036837 20 5 C20.33 5 20.66 5 21 5 C21.10477512 10.78591511 20.99250545 16.29309366 20 22 C23.3 22.99 26.6 23.98 30 25 C30.66 23.68 31.32 22.36 32 21 C33.3404996 19.22343426 34.71816295 17.47450993 36.125 15.75 C36.84945312 14.85796875 37.57390625 13.9659375 38.3203125 13.046875 C38.87460937 12.37140625 39.42890625 11.6959375 40 11 C40.495 11.99 40.495 11.99 41 13 C39.92664301 15.76674582 38.79739939 18.43194258 37.5625 21.125 C37.22412109 21.87910156 36.88574219 22.63320312 36.53710938 23.41015625 C35.69839399 25.27659331 34.85008607 27.1387143 34 29 C34.7425 29.28875 35.485 29.5775 36.25 29.875 C38.5448282 30.81379336 40.78233105 31.89116553 43 33 C48.94 28.545 48.94 28.545 55 24 C55.66 24.33 56.32 24.66 57 25 C56.00806641 26.22976562 56.00806641 26.22976562 54.99609375 27.484375 C54.14256194 28.57239357 53.28973371 29.66096435 52.4375 30.75 C51.99986328 31.28882813 51.56222656 31.82765625 51.11132812 32.3828125 C48.62908546 35.46617799 48.62908546 35.46617799 48.125 39.25 C49.19010344 41.38020687 50.49041718 43.162247 52 45 C57.05456522 44.4679405 61.22124125 42.7664243 65.828125 40.7421875 C66.54484375 40.49726563 67.2615625 40.25234375 68 40 C68.66 40.33 69.32 40.66 70 41 C65.71 44.3 61.42 47.6 57 51 C57.33 52.65 57.66 54.3 58 56 C58.33333333 57.66666667 58.66666667 59.33333333 59 61 C59.78375 60.835 60.5675 60.67 61.375 60.5 C65.93966142 59.87039153 70.40072601 59.91819473 75 60 C72.21325634 62.23067325 69.53022699 63.78857967 66.25 65.1875 C64.8475 65.785625 63.445 66.38375 62 67 C62 70.3 62 73.6 62 77 C68.27 77.66 74.54 78.32 81 79 C80.67 79.66 80.34 80.32 80 81 C78.23413086 81.41064453 78.23413086 81.41064453 75.96484375 81.6328125 C75.15595703 81.71660156 74.34707031 81.80039063 73.51367188 81.88671875 C72.66353516 81.96535156 71.81339844 82.04398437 70.9375 82.125 C70.08349609 82.21136719 69.22949219 82.29773438 68.34960938 82.38671875 C66.23389367 82.59947228 64.11703476 82.80079953 62 83 C62 86.3 62 89.6 62 93 C69.92 96.465 69.92 96.465 78 100 C74.17189179 101.27603607 70.76524893 100.86283987 66.8125 100.5625 C66.06291016 100.51029297 65.31332031 100.45808594 64.54101562 100.40429688 C62.69362918 100.27486216 60.84675629 100.13813482 59 100 C58.34 102.97 57.68 105.94 57 109 C61.29 112.3 65.58 115.6 70 119 C69.01 119.495 69.01 119.495 68 120 C64.65893555 118.81126548 61.42810774 117.41644301 58.1640625 116.03125 C54.48095074 114.82807769 54.48095074 114.82807769 51 116 C48.75149517 118.47661498 48.75149517 118.47661498 47 121 C44.49400083 120.00207533 41.9922171 118.99677739 39.5 117.96484375 C38.2625 117.45630859 38.2625 117.45630859 37 116.9375 C35.7625 116.42509766 35.7625 116.42509766 34.5 115.90234375 C29.70230063 114.17067413 25.33753389 113.86369437 20.25 113.875 C19.01378906 113.86984375 17.77757812 113.8646875 16.50390625 113.859375 C13.50863959 113.97958637 11.07134668 114.41293909 8.1875 115.125 C6.0703125 115.41796875 6.0703125 115.41796875 4 115 C1.46391398 112.74820832 -0.5573678 110.28865547 -2.68359375 107.6484375 C-8.29190949 101.23623164 -15.97854805 98.28012642 -24 96 C-24.99 95.67 -25.98 95.34 -27 95 C-29.01896864 94.9037238 -31.0412429 94.87018175 -33.0625 94.875 C-34.79693359 94.87693359 -34.79693359 94.87693359 -36.56640625 94.87890625 C-39.62198339 94.98666836 -42.48573778 95.33656386 -45.5 95.8125 C-47.921875 96.09765625 -47.921875 96.09765625 -50 96 C-52.75 93.75 -52.75 93.75 -55 91 C-58.16645474 89.20679176 -58.16645474 89.20679176 -61 88 C-61 86.35 -61 84.7 -61 83 C-62.21558594 82.87882812 -63.43117187 82.75765625 -64.68359375 82.6328125 C-66.26828117 82.46402922 -67.8529139 82.29473184 -69.4375 82.125 C-70.23994141 82.04636719 -71.04238281 81.96773438 -71.86914062 81.88671875 C-73.92170994 81.66154237 -75.96293009 81.33777413 -78 81 C-78.33 80.34 -78.66 79.68 -79 79 C-70.09 78.01 -70.09 78.01 -61 77 C-60.67 73.37 -60.34 69.74 -60 66 C-61.65 65.67 -63.3 65.34 -65 65 C-66.95804995 64.19405501 -68.8960874 63.33798303 -70.8125 62.4375 C-71.78832031 61.98246094 -72.76414063 61.52742188 -73.76953125 61.05859375 C-74.87361328 60.53458984 -74.87361328 60.53458984 -76 60 C-76 59.67 -76 59.34 -76 59 C-70.06 59.33 -64.12 59.66 -58 60 C-56.68 57.03 -55.36 54.06 -54 51 C-55.32 50.34 -56.64 49.68 -58 49 C-59.77656574 47.6595004 -61.52549007 46.28183705 -63.25 44.875 C-64.14203125 44.15054688 -65.0340625 43.42609375 -65.953125 42.6796875 C-66.62859375 42.12539062 -67.3040625 41.57109375 -68 41 C-67.01 40.505 -67.01 40.505 -66 40 C-64.01167955 40.71301287 -62.05660372 41.5201827 -60.125 42.375 C-55.1831927 44.55184528 -55.1831927 44.55184528 -50 46 C-49.71125 45.4225 -49.4225 44.845 -49.125 44.25 C-48.08333333 42.16666667 -47.04166667 40.08333333 -46 38 C-46.6496875 37.16855469 -47.299375 36.33710938 -47.96875 35.48046875 C-48.81287761 34.38310286 -49.65660698 33.28543056 -50.5 32.1875 C-50.92925781 31.64029297 -51.35851562 31.09308594 -51.80078125 30.52929688 C-55 26.33984375 -55 26.33984375 -55 23 C-54.11957031 23.74507812 -53.23914063 24.49015625 -52.33203125 25.2578125 C-51.15962936 26.21449244 -49.98640902 27.17017001 -48.8125 28.125 C-48.23435547 28.61871094 -47.65621094 29.11242187 -47.06054688 29.62109375 C-45.14434251 31.22317269 -45.14434251 31.22317269 -42 33 C-38.65929089 32.3042175 -36.85166885 30.90111257 -34 29 C-34.83437909 24.58269895 -35.66459987 20.67080027 -37.6875 16.625 C-38.120625 15.75875 -38.55375 14.8925 -39 14 C-38.67 13.01 -38.34 12.02 -38 11 C-36.70681744 12.6029449 -35.41550844 14.20740142 -34.125 15.8125 C-33.40570313 16.70582031 -32.68640625 17.59914062 -31.9453125 18.51953125 C-30 21 -30 21 -28 24 C-27.0925 23.67 -26.185 23.34 -25.25 23 C-22 22 -22 22 -18 22 C-18.144375 21.04738281 -18.28875 20.09476563 -18.4375 19.11328125 C-18.623125 17.85902344 -18.80875 16.60476562 -19 15.3125 C-19.185625 14.07113281 -19.37125 12.82976562 -19.5625 11.55078125 C-19.92100411 8.64113629 -20.08942256 5.92299978 -20 3 C-17.53859635 5.46140365 -16.69673014 7.78456293 -15.375 11 C-14.92898438 12.0725 -14.48296875 13.145 -14.0234375 14.25 C-13 17 -13 17 -13 19 C-9.7 18.67 -6.4 18.34 -3 18 C-2.01 12.06 -1.02 6.12 0 0 Z " fill="#F7C13C" transform="translate(312,148)"/>
<path d="M0 0 C0.33 0.66 0.66 1.32 1 2 C-0.37393005 5.66381347 -1.1447677 7.56243929 -4.6875 9.375 C-5.450625 9.58125 -6.21375 9.7875 -7 10 C-5.33248852 6.05860922 -2.77289351 3.2107188 0 0 Z " fill="#C9B648" transform="translate(352,159)"/>
</svg>
